<?xml version="1.0" encoding="utf-8"?>
<!-- Uploaded to: SVG Repo, www.svgrepo.com, Generator: SVG Repo Mixer Tools -->
<!DOCTYPE svg PUBLIC "-//W3C//DTD SVG 1.1//EN" "http://www.w3.org/Graphics/SVG/1.1/DTD/svg11.dtd">
<svg fill="#000000" version="1.1" id="Layer_1" xmlns="http://www.w3.org/2000/svg" xmlns:xlink="http://www.w3.org/1999/xlink" 
	 width="800px" height="800px" viewBox="0 0 300 300" enable-background="new 0 0 300 300" xml:space="preserve">
<g>
	<path d="M242.811,211.063c12.085-5.164,25.853-14.788,29.471-32.434c1.757-8.535,0.105-16.675-4.539-22.353
		c-4.169-5.121-10.49-7.935-17.782-7.935h-13.056l3.222-21.876c0.26-0.996,0.384-2.029,0.384-3.037
		c0-19.068-45.527-29.044-90.51-29.044s-90.51,9.976-90.51,29.044c0,1.008,0.124,2.041,0.384,3.037L76.561,239.99
		c0.779,17.169,46.399,21.777,73.439,21.777s72.66-4.608,73.439-21.777l3.531-23.967c2.282-0.451,5.394-1.218,8.975-2.368
		l-4.008,27.176c-1.738,26.57-57.674,29.465-81.938,29.465s-80.199-2.895-81.938-29.465l-4.614-31.357
		c-35.26,8.461-55.193,21.635-55.193,36.905C8.255,276.345,81.279,292.5,150,292.5s141.745-16.155,141.745-46.121
		C291.745,232.049,274.155,219.549,242.811,211.063z M150,125.137c25.457,0,49.09,3.266,64.446,8.604
		c-13.73,4.645-35.811,8.467-64.446,8.467s-50.716-3.822-64.446-8.467C100.917,128.402,124.543,125.137,150,125.137z
		 M235.401,158.597h14.559c4.219,0,7.639,1.429,9.853,4.156c2.672,3.284,3.563,8.325,2.431,13.812
		c-3.729,18.264-23.162,25.772-33.683,28.543L235.401,158.597z"/>
	<path d="M112.551,65.613c-3.655,3.056-8.672,7.23-8.672,15.326c0,2.826,2.313,5.115,5.14,5.115c2.82,0,5.115-2.289,5.115-5.115
		c0-3.173,1.62-4.651,4.991-7.459c3.661-3.056,8.671-7.236,8.671-15.326s-5.01-12.265-8.671-15.32
		c-3.371-2.808-4.991-4.311-4.991-7.465c0-3.142,1.62-4.645,4.985-7.44c3.655-3.049,8.677-7.23,8.677-15.313
		c0-2.827-2.294-5.115-5.121-5.115c-2.82,0-5.133,2.288-5.133,5.115c0,3.16-1.603,4.645-4.985,7.446
		c-3.661,3.049-8.678,7.224-8.678,15.308c0,8.096,5.017,12.277,8.672,15.332c3.389,2.802,4.991,4.305,4.991,7.453
		S115.939,62.806,112.551,65.613z"/>
	<path d="M146.716,65.613c-3.655,3.056-8.671,7.23-8.671,15.326c0,2.826,2.288,5.115,5.114,5.115c2.846,0,5.134-2.289,5.134-5.115
		c0-3.173,1.627-4.651,4.991-7.459c3.661-3.056,8.671-7.236,8.671-15.326s-5.01-12.265-8.671-15.32
		c-3.364-2.808-4.991-4.311-4.991-7.465c0-3.142,1.627-4.645,4.985-7.44c3.661-3.049,8.677-7.23,8.677-15.313
		c0-2.827-2.288-5.115-5.114-5.115c-2.846,0-5.134,2.288-5.134,5.115c0,3.16-1.627,4.645-4.985,7.446
		c-3.661,3.049-8.677,7.224-8.677,15.308c0,8.096,5.016,12.277,8.671,15.332c3.364,2.802,4.991,4.305,4.991,7.453
		S150.08,62.806,146.716,65.613z"/>
	<path d="M180.875,65.613c-3.649,3.056-8.671,7.23-8.671,15.326c0,2.826,2.294,5.115,5.121,5.115c2.82,0,5.133-2.289,5.133-5.115
		c0-3.173,1.603-4.651,4.991-7.459c3.662-3.056,8.672-7.236,8.672-15.326s-5.01-12.265-8.672-15.32
		c-3.389-2.808-4.991-4.311-4.991-7.465c0-3.142,1.603-4.645,4.985-7.44c3.661-3.049,8.678-7.23,8.678-15.313
		c0-2.827-2.313-5.115-5.14-5.115c-2.82,0-5.115,2.288-5.115,5.115c0,3.16-1.62,4.645-4.985,7.446
		c-3.655,3.049-8.677,7.224-8.677,15.308c0,8.096,5.021,12.277,8.671,15.332c3.371,2.802,4.991,4.305,4.991,7.453
		S184.246,62.806,180.875,65.613z"/>
</g>
</svg>